<svg width="48" height="48" viewBox="0 0 48 48" fill="none" xmlns="http://www.w3.org/2000/svg">
<path d="M36.6576 27.3182L26.8133 22.3425L37.9952 16.4573C37.9952 16.4573 38.5395 16.2433 38.5837 15.7618C38.6279 15.2803 38.2092 15.0128 38.2092 15.0128L34.3036 13.1937C34.3036 13.1937 33.9291 13.0248 33.5546 12.9797C33.18 12.9346 32.6985 13.0332 32.6985 13.0332L16.006 16.7249L7.98076 12.8727C7.98076 12.8727 6.53621 12.1237 3.59362 12.3912C0.651026 12.6587 0.00900658 13.9428 0.00900658 13.9428C0.00900658 13.9428 -0.204994 15.9758 1.45355 18.0089C3.1121 20.0419 5.68018 21.4865 5.68018 21.4865L32.859 35.2364C32.859 35.2364 34.5176 36.039 36.3366 35.4504C38.1557 34.8619 39.0117 35.0224 39.0117 35.0224L47.465 28.6022C47.465 28.6022 48 28.2277 48 27.5322C48 26.8367 47.358 26.5692 47.358 26.5692L42.7568 25.1246L36.6576 27.3182Z" fill="black"/>
</svg>
