<svg width="259" height="48" viewBox="0 0 259 48" fill="none" xmlns="http://www.w3.org/2000/svg">
<path d="M36.6576 27.3182L26.8133 22.3425L37.9952 16.4573C37.9952 16.4573 38.5395 16.2433 38.5837 15.7618C38.6279 15.2803 38.2092 15.0128 38.2092 15.0128L34.3036 13.1937C34.3036 13.1937 33.9291 13.0248 33.5546 12.9797C33.18 12.9346 32.6985 13.0332 32.6985 13.0332L16.006 16.7249L7.98076 12.8727C7.98076 12.8727 6.53621 12.1237 3.59362 12.3912C0.651026 12.6587 0.00900658 13.9428 0.00900658 13.9428C0.00900658 13.9428 -0.204994 15.9758 1.45355 18.0089C3.1121 20.0419 5.68018 21.4865 5.68018 21.4865L32.859 35.2364C32.859 35.2364 34.5176 36.039 36.3366 35.4504C38.1557 34.8619 39.0117 35.0224 39.0117 35.0224L47.465 28.6022C47.465 28.6022 48 28.2277 48 27.5322C48 26.8367 47.358 26.5692 47.358 26.5692L42.7568 25.1246L36.6576 27.3182Z" fill="black"/>
<path d="M67.8182 9.90909L70.7869 31.2159H71.0284L81.071 9.90909H88.9403L74.2955 39H64.9347L59.9489 9.90909H67.8182ZM90.7976 39.3693C89.415 39.3693 88.2218 39.1373 87.218 38.6733C86.2237 38.1998 85.4946 37.4848 85.0305 36.5284C84.576 35.572 84.4671 34.3788 84.7038 32.9489C84.9122 31.7367 85.2957 30.7188 85.8544 29.8949C86.4226 29.0616 87.1186 28.3845 87.9425 27.8636C88.7758 27.3428 89.7038 26.9451 90.7266 26.6705C91.7493 26.3958 92.8194 26.2112 93.9368 26.1165C95.1868 26.0028 96.2 25.8797 96.9766 25.7472C97.7625 25.6146 98.3497 25.4299 98.7379 25.1932C99.1262 24.947 99.3629 24.6061 99.4482 24.1705V24.0994C99.5618 23.3703 99.4055 22.8068 98.9794 22.4091C98.5533 22.0114 97.9141 21.8125 97.0618 21.8125C96.1527 21.8125 95.3762 22.0114 94.7322 22.4091C94.0883 22.8068 93.6385 23.3561 93.3828 24.0568L87.0192 23.8295C87.4169 22.5038 88.0987 21.3201 89.0646 20.2784C90.0305 19.2273 91.2569 18.4034 92.7436 17.8068C94.2398 17.2008 95.968 16.8977 97.9283 16.8977C99.3108 16.8977 100.561 17.0634 101.678 17.3949C102.796 17.7169 103.738 18.1903 104.505 18.8153C105.281 19.4309 105.835 20.1884 106.167 21.0881C106.498 21.9877 106.569 23.0152 106.38 24.1705L103.894 39H97.3601L97.8714 35.9602H97.701C97.1896 36.6989 96.5883 37.3239 95.897 37.8352C95.2152 38.3466 94.4482 38.7301 93.5959 38.9858C92.7436 39.2415 91.8108 39.3693 90.7976 39.3693ZM93.7237 34.8239C94.4529 34.8239 95.1442 34.6723 95.7976 34.3693C96.451 34.0663 97.0002 33.6496 97.4453 33.1193C97.8999 32.5795 98.1887 31.9545 98.3118 31.2443L98.6385 29.1705C98.4396 29.2746 98.1887 29.3693 97.8857 29.4545C97.5826 29.5398 97.2607 29.6203 96.9197 29.696C96.5788 29.7623 96.2285 29.8286 95.8686 29.8949C95.5182 29.9517 95.1821 30.0038 94.8601 30.0511C94.1783 30.1553 93.5864 30.3163 93.0845 30.5341C92.5826 30.7519 92.1802 31.036 91.8771 31.3864C91.5836 31.7273 91.4036 32.1345 91.3374 32.608C91.2237 33.3182 91.3894 33.8674 91.8345 34.2557C92.2796 34.6345 92.9093 34.8239 93.7237 34.8239ZM116.948 47.6364C114.865 47.6364 113.132 47.3475 111.749 46.7699C110.367 46.1922 109.335 45.4015 108.653 44.3977C107.971 43.3939 107.644 42.2576 107.673 40.9886L114.32 40.6193C114.377 41.0739 114.543 41.4669 114.817 41.7983C115.092 42.1297 115.485 42.3807 115.996 42.5511C116.508 42.7311 117.142 42.821 117.9 42.821C119.065 42.821 120.078 42.5369 120.94 41.9688C121.801 41.4006 122.332 40.4205 122.531 39.0284L123.17 35.1932H122.928C122.549 35.8655 122.038 36.4669 121.394 36.9972C120.75 37.5275 119.988 37.9441 119.107 38.2472C118.227 38.5502 117.251 38.7017 116.181 38.7017C114.581 38.7017 113.184 38.3324 111.991 37.5938C110.798 36.8456 109.936 35.6903 109.406 34.1278C108.875 32.5559 108.814 30.5341 109.221 28.0625C109.647 25.5152 110.405 23.4176 111.494 21.7699C112.583 20.1127 113.852 18.8864 115.3 18.0909C116.759 17.2955 118.25 16.8977 119.775 16.8977C120.921 16.8977 121.868 17.0966 122.616 17.4943C123.364 17.8826 123.951 18.3845 124.377 19C124.803 19.6155 125.106 20.2547 125.286 20.9176H125.485L126.096 17.1818H133.013L129.377 39.0852C129.084 40.9413 128.369 42.5038 127.232 43.7727C126.096 45.0417 124.642 46.0028 122.871 46.6562C121.101 47.3097 119.126 47.6364 116.948 47.6364ZM119.391 33.6449C120.234 33.6449 120.996 33.4223 121.678 32.9773C122.36 32.5322 122.933 31.893 123.397 31.0597C123.861 30.2263 124.188 29.2273 124.377 28.0625C124.567 26.8788 124.567 25.8608 124.377 25.0085C124.197 24.1468 123.847 23.4839 123.326 23.0199C122.805 22.5559 122.119 22.3239 121.266 22.3239C120.405 22.3239 119.638 22.5606 118.965 23.0341C118.302 23.5076 117.744 24.1752 117.289 25.0369C116.844 25.8892 116.531 26.8977 116.352 28.0625C116.162 29.2273 116.148 30.2263 116.309 31.0597C116.479 31.893 116.82 32.5322 117.332 32.9773C117.853 33.4223 118.539 33.6449 119.391 33.6449ZM139.899 39.3693C138.517 39.3693 137.323 39.1373 136.32 38.6733C135.325 38.1998 134.596 37.4848 134.132 36.5284C133.678 35.572 133.569 34.3788 133.805 32.9489C134.014 31.7367 134.397 30.7188 134.956 29.8949C135.524 29.0616 136.22 28.3845 137.044 27.8636C137.877 27.3428 138.805 26.9451 139.828 26.6705C140.851 26.3958 141.921 26.2112 143.038 26.1165C144.288 26.0028 145.302 25.8797 146.078 25.7472C146.864 25.6146 147.451 25.4299 147.839 25.1932C148.228 24.947 148.464 24.6061 148.55 24.1705V24.0994C148.663 23.3703 148.507 22.8068 148.081 22.4091C147.655 22.0114 147.016 21.8125 146.163 21.8125C145.254 21.8125 144.478 22.0114 143.834 22.4091C143.19 22.8068 142.74 23.3561 142.484 24.0568L136.121 23.8295C136.518 22.5038 137.2 21.3201 138.166 20.2784C139.132 19.2273 140.358 18.4034 141.845 17.8068C143.341 17.2008 145.07 16.8977 147.03 16.8977C148.412 16.8977 149.662 17.0634 150.78 17.3949C151.897 17.7169 152.839 18.1903 153.607 18.8153C154.383 19.4309 154.937 20.1884 155.268 21.0881C155.6 21.9877 155.671 23.0152 155.482 24.1705L152.996 39H146.462L146.973 35.9602H146.803C146.291 36.6989 145.69 37.3239 144.999 37.8352C144.317 38.3466 143.55 38.7301 142.697 38.9858C141.845 39.2415 140.912 39.3693 139.899 39.3693ZM142.825 34.8239C143.554 34.8239 144.246 34.6723 144.899 34.3693C145.553 34.0663 146.102 33.6496 146.547 33.1193C147.001 32.5795 147.29 31.9545 147.413 31.2443L147.74 29.1705C147.541 29.2746 147.29 29.3693 146.987 29.4545C146.684 29.5398 146.362 29.6203 146.021 29.696C145.68 29.7623 145.33 29.8286 144.97 29.8949C144.62 29.9517 144.284 30.0038 143.962 30.0511C143.28 30.1553 142.688 30.3163 142.186 30.5341C141.684 30.7519 141.282 31.036 140.979 31.3864C140.685 31.7273 140.505 32.1345 140.439 32.608C140.325 33.3182 140.491 33.8674 140.936 34.2557C141.381 34.6345 142.011 34.8239 142.825 34.8239ZM157.243 39L162.072 9.90909H169.018L167.214 20.9176H167.357C167.735 20.2547 168.237 19.6155 168.862 19C169.497 18.3845 170.259 17.8826 171.149 17.4943C172.039 17.0966 173.057 16.8977 174.203 16.8977C175.718 16.8977 177.068 17.2955 178.251 18.0909C179.435 18.8864 180.297 20.1127 180.837 21.7699C181.376 23.4271 181.433 25.5388 181.007 28.1051C180.6 30.5767 179.866 32.6458 178.805 34.3125C177.745 35.9792 176.481 37.2292 175.013 38.0625C173.554 38.8958 172.02 39.3125 170.411 39.3125C169.312 39.3125 168.389 39.1326 167.641 38.7727C166.902 38.4129 166.31 37.9394 165.865 37.3523C165.429 36.7652 165.126 36.1354 164.956 35.4631H164.686L164.118 39H157.243ZM165.865 28.0909C165.676 29.2652 165.666 30.2879 165.837 31.1591C166.017 32.0303 166.362 32.7074 166.874 33.1903C167.394 33.6638 168.081 33.9006 168.933 33.9006C169.786 33.9006 170.548 33.6638 171.22 33.1903C171.893 32.7074 172.456 32.0303 172.911 31.1591C173.365 30.2879 173.687 29.2652 173.876 28.0909C174.066 26.9167 174.075 25.8987 173.905 25.0369C173.744 24.1752 173.408 23.5076 172.896 23.0341C172.385 22.5606 171.698 22.3239 170.837 22.3239C169.984 22.3239 169.217 22.5559 168.536 23.0199C167.863 23.4839 167.295 24.1468 166.831 25.0085C166.376 25.8703 166.054 26.8977 165.865 28.0909ZM192.999 39.4119C190.698 39.4119 188.799 38.9384 187.303 37.9915C185.817 37.0445 184.77 35.7235 184.164 34.0284C183.558 32.3333 183.44 30.3636 183.809 28.1193C184.178 25.8845 184.941 23.9242 186.096 22.2386C187.251 20.553 188.728 19.2415 190.528 18.304C192.327 17.3665 194.368 16.8977 196.65 16.8977C198.942 16.8977 200.831 17.3712 202.317 18.3182C203.814 19.2652 204.865 20.5862 205.471 22.2812C206.086 23.9763 206.21 25.9508 205.84 28.2045C205.471 30.4394 204.704 32.3996 203.539 34.0852C202.374 35.7614 200.897 37.0682 199.107 38.0057C197.317 38.9432 195.281 39.4119 192.999 39.4119ZM193.781 34.1705C194.633 34.1705 195.395 33.9148 196.067 33.4034C196.749 32.892 197.322 32.1771 197.786 31.2585C198.25 30.34 198.582 29.2746 198.781 28.0625C198.979 26.8693 198.998 25.8229 198.837 24.9233C198.686 24.0142 198.364 23.3087 197.871 22.8068C197.379 22.2955 196.711 22.0398 195.869 22.0398C195.016 22.0398 194.249 22.3002 193.567 22.821C192.886 23.3324 192.313 24.0473 191.849 24.9659C191.394 25.875 191.067 26.9403 190.869 28.1619C190.67 29.3551 190.646 30.4015 190.798 31.3011C190.949 32.2008 191.276 32.9062 191.778 33.4176C192.28 33.9195 192.947 34.1705 193.781 34.1705ZM216.657 26.5568L214.583 39H207.637L211.273 17.1818H217.879L217.225 21.1875H217.467C218.148 19.8523 219.138 18.8059 220.435 18.0483C221.733 17.2812 223.191 16.8977 224.81 16.8977C226.335 16.8977 227.609 17.2386 228.631 17.9205C229.654 18.6023 230.379 19.5587 230.805 20.7898C231.231 22.0114 231.302 23.446 231.018 25.0938L228.688 39H221.742L223.83 26.4574C224.039 25.2547 223.892 24.3125 223.39 23.6307C222.897 22.9394 222.093 22.5938 220.975 22.5938C220.246 22.5938 219.578 22.7547 218.972 23.0767C218.376 23.3892 217.874 23.839 217.467 24.4261C217.069 25.0133 216.799 25.7235 216.657 26.5568ZM240.886 39.3125C239.277 39.3125 237.88 38.8958 236.696 38.0625C235.512 37.2292 234.665 35.9792 234.153 34.3125C233.652 32.6458 233.604 30.5767 234.011 28.1051C234.438 25.5388 235.195 23.4271 236.284 21.7699C237.373 20.1127 238.642 18.8864 240.091 18.0909C241.549 17.2955 243.036 16.8977 244.551 16.8977C245.697 16.8977 246.644 17.0966 247.392 17.4943C248.15 17.8826 248.741 18.3845 249.168 19C249.594 19.6155 249.887 20.2547 250.048 20.9176H250.205L252.037 9.90909H258.983L254.153 39H247.278L247.861 35.4631H247.648C247.241 36.1354 246.72 36.7652 246.085 37.3523C245.451 37.9394 244.698 38.4129 243.827 38.7727C242.965 39.1326 241.985 39.3125 240.886 39.3125ZM244.168 33.9006C245.01 33.9006 245.773 33.6638 246.455 33.1903C247.136 32.7074 247.709 32.0303 248.173 31.1591C248.647 30.2879 248.978 29.2652 249.168 28.0909C249.366 26.8977 249.376 25.8703 249.196 25.0085C249.016 24.1468 248.661 23.4839 248.131 23.0199C247.61 22.5559 246.923 22.3239 246.071 22.3239C245.219 22.3239 244.456 22.5606 243.784 23.0341C243.112 23.5076 242.553 24.1752 242.108 25.0369C241.663 25.8987 241.341 26.9167 241.142 28.0909C240.953 29.2652 240.934 30.2879 241.085 31.1591C241.246 32.0303 241.582 32.7074 242.094 33.1903C242.615 33.6638 243.306 33.9006 244.168 33.9006Z" fill="black"/>
</svg>
